<svg xmlns="http://www.w3.org/2000/svg" width="26.587" height="16.604" viewBox="0 0 26.587 16.604">
<g id="Group_4" data-name="Group 4" transform="translate(116.873 423.705)">
    <path id="Path_4" data-name="Path 4" d="M10.615,11.344l1.27.859a7.508,7.508,0,0,1-1.65,2.612,2.545,2.545,0,0,1-1.67.7A3.432,3.432,0,0,1,6.1,14.093Q5,12.75,4.551,12.188a1.394,1.394,0,0,0-1.162-.552,1.239,1.239,0,0,0-1.143.708,15.647,15.647,0,0,0-.82,1.8L.127,13.4a6.213,6.213,0,0,1,1.465-2.666A2.643,2.643,0,0,1,3.4,9.879a3.577,3.577,0,0,1,2.954,1.953Q7.656,13.8,8.564,13.8a1.439,1.439,0,0,0,1.26-.845A12.037,12.037,0,0,0,10.615,11.344Z" transform="translate(-117 -427)" fill="#4eabd9"/>
    <path id="Union_4" data-name="Union 4" d="M7.409,6.8,0,13.6ZM0,0,7.409,6.8Z" transform="translate(-99.196 -422.205)" fill="none" stroke="#4eabd9" stroke-linecap="round" stroke-linejoin="round" stroke-width="3"/>
</g>
</svg>

